<?xml version="1.0" encoding="utf-8"?>
<!-- Generator: Adobe Illustrator 16.0.0, SVG Export Plug-In . SVG Version: 6.00 Build 0)  -->
<!DOCTYPE svg PUBLIC "-//W3C//DTD SVG 1.1//EN" "http://www.w3.org/Graphics/SVG/1.1/DTD/svg11.dtd">
<svg version="1.1" id="Layer_1" xmlns="http://www.w3.org/2000/svg" xmlns:xlink="http://www.w3.org/1999/xlink" x="0px" y="0px"
	 width="205.999px" height="42.999px" viewBox="0 0 205.999 42.999" enable-background="new 0 0 205.999 42.999"
	 xml:space="preserve">
<g>
	<polygon fill="#221F1F" points="3.943,12.904 17.646,12.904 17.646,17.42 10.102,25.836 18.159,25.836 18.159,30.25 3.943,30.25 
		3.943,25.836 11.333,17.42 3.943,17.42 	"/>
	<polygon fill="#221F1F" points="39.931,12.904 53.633,12.904 53.633,17.42 46.089,25.836 54.146,25.836 54.146,30.25 39.931,30.25 
		39.931,25.836 47.321,17.42 39.931,17.42 	"/>
	<path fill="#221F1F" d="M31.297,25.118c0,0-0.46,1.18-2.36,1.077c-1.899-0.103-2.309-1.231-2.361-2.822h9.957v-5.08
		c0,0,0.256-4.516-5.748-5.748c-6.005-1.232-9.442,2.874-9.442,5.415s0,7.209,0,7.209s0.718,5.235,6.415,5.492
		c5.697,0.256,8.419-2.258,8.777-5.543H31.297z M26.473,18.396c0-0.864,0.934-1.245,1.95-1.327v-0.006
		c0.105-0.007,0.212-0.01,0.319-0.011c0.031,0,0.062,0,0.093,0c0.029,0,0.061,0,0.092,0c0.107,0.001,0.213,0.004,0.318,0.011v0.006
		c1.017,0.082,1.95,0.463,1.95,1.327c0,1.232,0,1.232,0,1.232l-1.95,0.021v0.009l-0.41-0.004l-0.412,0.004v-0.009l-1.95-0.021
		C26.473,19.627,26.473,19.627,26.473,18.396z"/>
	<polygon fill="#221F1F" points="92.625,12.904 90.623,23.064 88.365,15.829 86.569,15.829 84.772,15.829 82.514,23.064 
		80.513,12.904 75.791,12.904 75.791,15.469 79.282,30.25 84.054,30.25 86.569,23.989 89.084,30.25 93.856,30.25 97.346,15.469 
		97.346,12.904 	"/>
	<path fill="#221F1F" d="M119.926,12.904V30.25h5.134V18.601c0,0,0.665-1.386,4.566-1.129c0-4.926,0-4.926,0-4.926h-1.848
		c0,0-2.361,0.103-3.644,1.95l-1.231-1.59H119.926z"/>
	<rect x="130.96" y="25.426" fill="#221F1F" width="5.695" height="4.824"/>
	<path fill="#221F1F" d="M147.768,25.542c-2.224,0-2.288-1.291-2.284-2.631l0,0c0,0,0-0.11,0-0.294c0-0.492,0-1.535,0-2.58
		c0-0.185,0-0.294,0-0.294l0,0c-0.004-1.339,0.061-2.631,2.284-2.631c2.387,0,2.182,2.31,2.182,2.31h5.286
		c0.05-4.003-2.824-7.801-8.88-6.877c-5.769,0.879-6.042,5.623-6.054,6.07l-0.002-0.001v0.038v5.35v0.04h0.002
		c0.012,0.444,0.285,5.188,6.054,6.067c6.056,0.925,8.93-2.873,8.88-6.875h-5.286C149.949,23.234,150.154,25.542,147.768,25.542z"/>
	<g>
		<path fill="#221F1F" d="M173.745,18.615c-0.012-0.42-0.254-4.625-5.057-5.866c-0.772-0.233-1.644-0.357-2.616-0.342
			c-0.972-0.015-1.841,0.109-2.615,0.342c-4.801,1.241-5.043,5.446-5.055,5.866l-0.003-0.001v0.038v5.35v0.04h0.003
			c0.012,0.417,0.251,4.624,5.056,5.865c0.773,0.232,1.643,0.356,2.614,0.343c0.973,0.014,1.842-0.11,2.616-0.343
			c4.803-1.241,5.045-5.448,5.057-5.865l0,0v-0.04v-5.35V18.615L173.745,18.615z M168.645,23.784v0.034c0,0,0.162,1.873-2.057,2.211
			c-0.137,0.036-0.29,0.052-0.467,0.046c-0.174,0.006-0.327-0.01-0.464-0.046c-2.22-0.338-2.057-2.211-2.057-2.211v-0.034
			c-0.029,0.002-0.026-0.022,0-0.068v-4.192c-0.026-0.046-0.029-0.072,0-0.068v-0.033c0,0-0.163-1.875,2.057-2.213
			c0.137-0.035,0.29-0.051,0.464-0.045c0.177-0.006,0.33,0.01,0.467,0.045c2.219,0.338,2.057,2.213,2.057,2.213v0.033
			c0.029-0.004,0.024,0.022,0,0.068v4.192C168.669,23.762,168.674,23.786,168.645,23.784z"/>
	</g>
	<path fill="#221F1F" d="M196.376,12.631c-2.736-0.035-3.764,1.06-4.893,1.916c-0.738-0.793-1.813-1.533-3.45-1.802
		c-0.126-0.024-0.252-0.042-0.38-0.057c-0.037-0.005-0.071-0.011-0.111-0.016c-0.202-0.022-0.407-0.039-0.609-0.04
		c-0.065-0.001-0.125,0.001-0.188,0.001c-0.018,0-0.034-0.001-0.052-0.001c-0.029,0-0.06,0.003-0.091,0.003
		c-2.405,0.054-3.413,1.024-4.455,1.829l-1.168-1.49h-2.977v17.279h3.559h1.608h0.068c0,0,0-10.608,0-11.395
		c0-0.787,0.854-2.019,2.566-1.71c1.711,0.308,1.711,1.847,1.711,1.847v2.445v8.813h5.097h0.068c0,0,0-10.608,0-11.395
		c0-0.787,0.856-2.019,2.566-1.71c1.711,0.308,1.711,1.847,1.711,1.847v11.258h5.097c0,0,0-9.479,0-12.592
		C202.055,14.546,199.114,12.665,196.376,12.631z"/>
	<path fill="#221F1F" d="M63.372,12.647c-5.594,0.462-5.749,5.953-5.749,5.953h5.031c0.18-1.283,1.59-2.001,3.079-1.55
		c1.745,0.605,1.18,2.832,1.18,2.832s-5.44-0.718-8.314,1.285c-2.874,2-2.053,8.057,1.848,9.083c3.899,1.026,6.158-0.308,7.493-1.54
		c0.359,0.515,1.283,1.54,1.283,1.54h2.976c0,0,0-8.211,0-11.896C72.199,14.668,68.966,12.185,63.372,12.647z M67.118,24.938
		c0,0-1.693,1.564-3.669,1.207c-1.976-0.359-1.667-2.901,0-2.901c1.667,0,3.669,0,3.669,0V24.938z"/>
	<path fill="#221F1F" d="M106.35,12.647c-5.593,0.462-5.748,5.953-5.748,5.953h5.029c0.181-1.283,1.591-2.001,3.08-1.55
		c1.744,0.605,1.18,2.832,1.18,2.832s-5.441-0.718-8.314,1.285c-2.874,2-2.052,8.057,1.848,9.083
		c3.899,1.026,6.158-0.308,7.492-1.54c0.359,0.515,1.283,1.54,1.283,1.54h2.976c0,0,0-8.211,0-11.896
		C115.176,14.668,111.942,12.185,106.35,12.647z M110.097,24.938c0,0-1.693,1.564-3.67,1.207c-1.978-0.359-1.668-2.901,0-2.901
		c1.667,0,3.67,0,3.67,0V24.938z"/>
</g>
</svg>
