<?xml version="1.0" encoding="utf-8"?>
<!-- Generator: Adobe Illustrator 16.0.0, SVG Export Plug-In . SVG Version: 6.00 Build 0)  -->
<!DOCTYPE svg PUBLIC "-//W3C//DTD SVG 1.1//EN" "http://www.w3.org/Graphics/SVG/1.1/DTD/svg11.dtd">
<svg version="1.1" id="Layer_1" xmlns="http://www.w3.org/2000/svg" xmlns:xlink="http://www.w3.org/1999/xlink" x="0px" y="0px"
	 width="377.671px" height="125.348px" viewBox="0 0 377.671 125.348" enable-background="new 0 0 377.671 125.348"
	 xml:space="preserve">
<g>
	<g>
		<g>
			<path fill="#FFFFFF" d="M97.488,59.877c-1.154,0.747-2.325,1.104-3.511,1.069c-1.188-0.032-2.225-0.322-3.105-0.864v0.1
				c0,0.885,0.032,1.781,0.102,2.699c0.067,0.917,0.237,1.782,0.508,2.597c0.271,0.814,0.611,1.51,1.019,2.087
				s0.983,1.002,1.73,1.271c1.086,0.341,2.459-0.135,4.124-1.424c1.662-1.29,3.427-3.072,5.295-5.347
				c1.865-2.273,3.782-4.818,5.752-7.634c1.968-2.817,3.817-5.567,5.548-8.249c1.73-2.68,3.258-5.141,4.583-7.38
				c1.323-2.241,2.324-3.869,3.002-4.889c0.271-0.408,0.611-0.592,1.019-0.56c0.407,0.035,0.78,0.152,1.12,0.358
				c0.338,0.202,0.594,0.475,0.764,0.814c0.168,0.34,0.152,0.645-0.052,0.915c-0.406,0.815-1.171,2.513-2.29,5.091
				c-1.12,2.581-2.512,5.55-4.174,8.91c-1.665,3.359-3.548,6.888-5.651,10.587c-2.104,3.701-4.345,7.061-6.719,10.079
				c-2.377,3.021-4.821,5.498-7.331,7.433c-2.512,1.935-5.024,2.834-7.534,2.699c-3.529-0.205-6.363-1.187-8.501-2.954
				c-2.139-1.765-3.731-4.021-4.785-6.771c-1.052-2.746-1.594-5.853-1.629-9.314c-0.032-3.461,0.355-6.976,1.171-10.538
				c0.814-3.562,2.003-7.042,3.563-10.436s3.36-6.379,5.396-8.959c2.037-2.58,4.293-4.632,6.771-6.16
				c2.477-1.527,5.073-2.223,7.789-2.086c1.899,0.136,3.426,0.798,4.581,1.985c1.153,1.187,2.02,2.562,2.597,4.124
				c0.576,1.562,0.949,3.19,1.119,4.886c0.169,1.697,0.221,3.123,0.153,4.276c-0.204,2.308-0.646,4.531-1.323,6.667
				c-0.679,2.14-1.562,4.159-2.647,6.058c-1.087,1.903-2.342,3.6-3.768,5.091C100.748,57.605,99.186,58.859,97.488,59.877z
				 M102.579,33.712c-0.475-0.206-1.256,0.237-2.342,1.323c-1.085,1.086-2.238,2.595-3.461,4.53c-1.222,1.934-2.359,4.21-3.41,6.821
				c-1.054,2.615-1.782,5.38-2.189,8.3c0.271,0.27,0.611,0.305,1.019,0.1c1.288-0.337,2.511-1.223,3.665-2.647
				c1.153-1.424,2.154-3.019,3.003-4.785c0.849-1.763,1.578-3.527,2.189-5.294c0.611-1.765,1.052-3.189,1.323-4.276
				c0.203-0.95,0.339-1.694,0.407-2.239c0.067-0.542,0.103-0.932,0.103-1.171c0-0.236-0.035-0.388-0.103-0.458
				C102.715,33.849,102.647,33.78,102.579,33.712z"/>
		</g>
		<g>
			<path fill="#FFFFFF" d="M118.664,80.24c-0.542-0.272-1.084-0.832-1.628-1.68c-0.542-0.85-0.983-1.816-1.323-2.901
				c-0.34-1.087-0.526-2.242-0.56-3.461c-0.034-1.223,0.188-2.342,0.661-3.362c1.222-3.054,2.832-5.973,4.836-8.754
				c2.001-2.784,4.378-5.601,7.126-8.452c2.749-2.851,5.804-5.803,9.163-8.857c3.36-3.055,7.042-6.379,11.047-9.978
				c-2.442,0.272-4.667,0.68-6.668,1.222c-2.003,0.545-3.971,1.171-5.905,1.884c-1.935,0.712-3.938,1.492-6.007,2.34
				c-2.071,0.85-4.363,1.716-6.873,2.597c-0.813,0.069-1.476-0.255-1.984-0.967c-0.51-0.714-0.866-1.63-1.069-2.749
				c-0.204-1.12-0.289-2.342-0.254-3.666c0.032-1.323,0.187-2.579,0.457-3.766c0.271-1.187,0.679-2.206,1.223-3.055
				c0.542-0.849,1.187-1.339,1.935-1.476c3.461-0.747,6.667-1.254,9.62-1.527c2.953-0.271,5.837-0.357,8.655-0.255
				c2.814,0.103,5.632,0.391,8.449,0.865c2.815,0.476,5.819,1.12,9.01,1.934l0.103,0.103h0.916c0.611,0.138,1.273,0.51,1.985,1.12
				c0.713,0.611,1.306,1.375,1.782,2.292c0.474,0.915,0.764,1.882,0.864,2.902c0.103,1.017-0.152,1.969-0.763,2.849
				c-5.294,4.889-10.368,9.689-15.221,14.408c-4.854,4.717-9.452,9.417-13.796,14.101c3.937-1.562,7.906-2.767,11.913-3.616
				c4.004-0.848,8.109-0.897,12.318-0.152c1.357,0.68,2.138,1.884,2.342,3.616c0.204,1.729,0.052,3.512-0.459,5.343
				c-0.508,1.835-1.289,3.479-2.342,4.939c-1.052,1.459-2.155,2.257-3.309,2.392c-2.783-0.61-5.583-0.865-8.398-0.763
				c-2.818,0.103-5.668,0.39-8.553,0.865c-2.885,0.475-5.82,1.069-8.807,1.781c-2.987,0.713-6.042,1.375-9.162,1.984
				c-0.272,0.138-0.51,0.205-0.714,0.205h-0.102C118.901,80.545,118.731,80.442,118.664,80.24z"/>
		</g>
		<g>
			<path fill="#FFFFFF" d="M201.743,24.65c0.27-0.27,0.982-0.255,2.139,0.051c1.152,0.306,2.34,0.884,3.562,1.731
				c1.221,0.85,2.205,1.969,2.953,3.36c0.744,1.391,0.848,3.038,0.305,4.937c-0.611,1.426-1.205,2.735-1.781,3.92
				c-0.578,1.188-1.121,2.359-1.629,3.513c-0.51,1.155-1.02,2.427-1.527,3.819c-0.51,1.391-1.037,3.003-1.578,4.836
				c-0.07,0.202-0.273,0.967-0.611,2.29c-0.34,1.325-0.662,2.699-0.967,4.123c-0.305,1.425-0.457,2.633-0.457,3.614
				c0,0.984,0.305,1.272,0.916,0.864c0.27-0.202,0.643-0.542,1.119-1.017c0.473-0.475,0.982-0.999,1.527-1.577
				c0.541-0.577,1.068-1.172,1.578-1.781c0.508-0.613,0.967-1.188,1.373-1.732c1.766-2.441,3.172-4.461,4.227-6.057
				c1.051-1.594,2.02-3.122,2.9-4.583c0.881-1.458,1.834-3.002,2.852-4.631c1.018-1.629,2.375-3.732,4.072-6.313
				c0.27-0.407,0.611-0.611,1.018-0.611c0.408,0,0.779,0.119,1.119,0.356c0.34,0.239,0.611,0.56,0.816,0.967
				c0.203,0.408,0.203,0.85,0,1.325c-1.428,4.071-3.055,8.194-4.889,12.368c-1.832,4.174-3.834,8.198-6.006,12.067
				c-1.018,1.765-2.035,3.801-3.055,6.107c-1.018,2.31-2.189,4.496-3.512,6.568c-1.324,2.069-2.836,3.802-4.531,5.19
				c-1.697,1.393-3.699,2.02-6.006,1.885c-2.377-0.135-4.312-1.119-5.803-2.954c-1.496-1.832-2.547-4.206-3.158-7.125
				c-0.34-1.562-0.576-3.259-0.711-5.091c-0.139-1.832-0.172-3.699-0.104-5.602c-0.881,2.377-1.816,4.769-2.799,7.178
				c-0.984,2.412-2.072,4.566-3.258,6.466c-1.189,1.902-2.443,3.447-3.768,4.634c-1.322,1.188-2.766,1.782-4.327,1.782
				c-1.766,0-3.309-0.492-4.632-1.478c-1.323-0.984-2.429-2.239-3.309-3.766c-0.881-1.527-1.595-3.225-2.139-5.091
				c-0.542-1.867-0.916-3.649-1.119-5.347c-0.407-3.054-0.356-6.345,0.152-9.877c0.51-3.526,1.323-6.973,2.444-10.332
				c1.119-3.362,2.494-6.448,4.122-9.266c1.63-2.815,3.36-5.072,5.192-6.77c1.086-1.019,2.562-2,4.43-2.953
				c1.866-0.95,3.8-1.44,5.804-1.476c2-0.034,3.918,0.611,5.752,1.934c1.83,1.324,3.291,3.786,4.377,7.382v0.305
				c0.949-1.492,2.002-2.934,3.156-4.326C199.128,27.078,200.384,25.805,201.743,24.65z M174.66,64.561
				c0.611,0.067,1.528-0.561,2.749-1.885c1.223-1.322,2.598-3.069,4.123-5.243c1.527-2.169,3.105-4.681,4.734-7.533
				c1.629-2.85,3.189-5.803,4.684-8.857c0.203-0.542,0.408-1.084,0.611-1.63c0.203-0.542,0.441-1.084,0.711-1.629
				c0.342-1.559,0.172-2.781-0.508-3.664c-0.678-0.882-1.527-1.357-2.545-1.426c-1.086,0-2.275,0.763-3.562,2.291
				c-1.291,1.527-2.545,3.479-3.768,5.854s-2.377,4.937-3.462,7.686c-1.086,2.749-1.985,5.311-2.697,7.688
				c-0.713,2.377-1.188,4.361-1.426,5.956C174.065,63.763,174.186,64.561,174.66,64.561z"/>
		</g>
		<g>
			<path fill="#FFFFFF" d="M262.522,65.577c-0.748,1.902-1.562,3.77-2.443,5.601c-0.883,1.832-1.902,3.462-3.055,4.889
				c-1.154,1.425-2.479,2.579-3.971,3.462c-1.492,0.879-3.156,1.254-4.988,1.119c-2.377-0.07-4.293-1.02-5.752-2.852
				c-1.461-1.832-2.496-4.241-3.105-7.228c-0.34-1.63-0.527-3.394-0.561-5.296c-0.035-1.899,0.051-3.834,0.256-5.804
				c-0.408,1.832-1.004,3.972-1.783,6.416c-0.781,2.441-1.715,4.783-2.799,7.025c-1.088,2.239-2.359,4.124-3.818,5.65
				c-1.461,1.527-3.105,2.222-4.938,2.087c-2.309-0.07-4.193-1.02-5.65-2.852c-1.459-1.832-2.494-4.241-3.105-7.228
				c-0.408-1.97-0.576-4.089-0.508-6.363c0.066-2.274,0.27-4.616,0.609-7.025c0.34-2.408,0.748-4.786,1.221-7.128
				c0.477-2.342,0.951-4.531,1.426-6.566c0.408-1.628,0.969-3.478,1.68-5.548c0.713-2.071,1.479-4.055,2.291-5.957
				c0.814-1.899,1.664-3.545,2.545-4.937c0.883-1.391,1.695-2.223,2.445-2.494c0.541-0.204,1.406-0.119,2.596,0.253
				c1.186,0.375,2.307,1.02,3.359,1.935c1.051,0.917,1.883,2.088,2.494,3.514c0.611,1.424,0.611,3.089,0,4.988
				c-0.611,1.424-1.119,2.715-1.527,3.869c-0.406,1.155-0.799,2.326-1.17,3.511c-0.373,1.19-0.748,2.462-1.119,3.819
				c-0.375,1.358-0.834,2.952-1.375,4.786c-0.068,0.135-0.188,0.645-0.357,1.528c-0.17,0.882-0.375,1.935-0.609,3.153
				c-0.24,1.222-0.477,2.494-0.715,3.818c-0.236,1.325-0.391,2.53-0.457,3.614c-0.068,1.087-0.051,1.92,0.051,2.494
				c0.102,0.577,0.357,0.729,0.764,0.46c0.135-0.138,0.287-0.29,0.457-0.46c0.17-0.167,0.322-0.457,0.459-0.864h0.102
				c1.289-1.63,2.494-3.579,3.615-5.854c1.119-2.274,2.152-4.665,3.105-7.178c0.949-2.512,1.848-5.056,2.697-7.636
				c0.848-2.578,1.713-5.04,2.596-7.382s1.781-4.462,2.697-6.363c0.918-1.899,1.918-3.394,3.004-4.48
				c0.135-0.135,0.238-0.204,0.307-0.204c0.475-0.677,0.982-1.12,1.525-1.323c0.545-0.204,1.391-0.119,2.547,0.253
				c1.152,0.375,2.273,1.02,3.359,1.935c1.084,0.917,1.918,2.088,2.494,3.514c0.576,1.424,0.594,3.089,0.051,4.988
				c-0.609,1.424-1.119,2.715-1.525,3.869c-0.408,1.155-0.799,2.326-1.172,3.511c-0.373,1.19-0.748,2.462-1.119,3.819
				c-0.375,1.358-0.832,2.952-1.375,4.786c-0.068,0.135-0.188,0.661-0.357,1.578c-0.17,0.917-0.355,2.002-0.561,3.259
				c-0.203,1.255-0.422,2.562-0.66,3.919c-0.238,1.356-0.391,2.562-0.459,3.613c-0.068,1.053-0.068,1.867,0,2.444
				s0.307,0.662,0.713,0.255c1.289-1.289,2.51-2.866,3.666-4.736c1.154-1.863,2.223-3.918,3.207-6.157
				c0.982-2.239,1.934-4.582,2.85-7.026c0.918-2.444,1.781-4.887,2.598-7.33c-0.408-2.307-0.273-4.921,0.406-7.84
				c0.34-1.424,0.779-2.916,1.324-4.479c0.541-1.562,1.203-2.901,1.984-4.022c0.781-1.12,1.713-1.848,2.799-2.188
				s2.342,0,3.77,1.017c1.287,0.953,2.289,2.173,3.002,3.667c0.713,1.492,1.121,3.089,1.223,4.783
				c0.1,1.699-0.053,3.412-0.459,5.143c-0.408,1.73-1.086,3.309-2.035,4.734c0.611,0,1.338-0.255,2.189-0.765
				c0.846-0.509,1.695-1.102,2.543-1.782c0.85-0.677,1.629-1.373,2.342-2.086c0.715-0.712,1.273-1.304,1.682-1.782
				c0.746-0.95,1.457-1.44,2.137-1.474c0.678-0.035,1.221,0.202,1.629,0.712c0.408,0.509,0.645,1.169,0.713,1.984
				c0.066,0.815-0.102,1.562-0.51,2.241l-6.006,7.024c-1.154,1.222-2.41,2.157-3.766,2.8c-1.359,0.646-2.699,1.036-4.023,1.171
				c-1.324,0.138-2.613,0-3.869-0.407s-2.391-1.017-3.41-1.832c-1.154,3.258-2.273,6.398-3.359,9.417
				C264.491,60.1,263.472,62.931,262.522,65.577z"/>
		</g>
		<g>
			<path fill="#FFFFFF" d="M319.435,24.65c0.27-0.27,0.982-0.255,2.139,0.051c1.152,0.306,2.34,0.884,3.562,1.731
				c1.221,0.85,2.205,1.969,2.953,3.36c0.744,1.391,0.848,3.038,0.305,4.937c-0.609,1.426-1.205,2.735-1.781,3.92
				c-0.578,1.188-1.121,2.359-1.629,3.513c-0.51,1.155-1.02,2.427-1.527,3.819c-0.51,1.391-1.037,3.003-1.578,4.836
				c-0.068,0.202-0.273,0.967-0.611,2.29c-0.34,1.325-0.66,2.699-0.967,4.123c-0.305,1.425-0.457,2.633-0.457,3.614
				c0,0.984,0.305,1.272,0.916,0.864c0.27-0.202,0.643-0.542,1.119-1.017c0.473-0.475,0.982-0.999,1.527-1.577
				c0.541-0.577,1.068-1.172,1.578-1.781c0.508-0.613,0.967-1.188,1.373-1.732c1.766-2.441,3.172-4.461,4.227-6.057
				c1.051-1.594,2.02-3.122,2.9-4.583c0.881-1.458,1.834-3.002,2.852-4.631c1.018-1.629,2.375-3.732,4.072-6.313
				c0.27-0.407,0.611-0.611,1.018-0.611c0.408,0,0.779,0.119,1.119,0.356c0.34,0.239,0.611,0.56,0.816,0.967
				c0.203,0.408,0.203,0.85,0,1.325c-1.428,4.071-3.055,8.194-4.889,12.368c-1.832,4.174-3.834,8.198-6.006,12.067
				c-1.018,1.765-2.035,3.801-3.055,6.107c-1.018,2.31-2.189,4.496-3.512,6.568c-1.324,2.069-2.834,3.802-4.531,5.19
				c-1.697,1.393-3.699,2.02-6.006,1.885c-2.377-0.135-4.312-1.119-5.803-2.954c-1.496-1.832-2.547-4.206-3.156-7.125
				c-0.342-1.562-0.578-3.259-0.713-5.091c-0.139-1.832-0.172-3.699-0.104-5.602c-0.881,2.377-1.816,4.769-2.799,7.178
				c-0.984,2.412-2.072,4.566-3.258,6.466c-1.189,1.902-2.443,3.447-3.768,4.634c-1.322,1.188-2.766,1.782-4.326,1.782
				c-1.768,0-3.311-0.492-4.633-1.478c-1.324-0.984-2.428-2.239-3.309-3.766c-0.881-1.527-1.596-3.225-2.139-5.091
				c-0.543-1.867-0.916-3.649-1.119-5.347c-0.408-3.054-0.357-6.345,0.152-9.877c0.51-3.526,1.322-6.973,2.443-10.332
				c1.121-3.362,2.494-6.448,4.123-9.266c1.629-2.815,3.359-5.072,5.191-6.77c1.086-1.019,2.562-2,4.43-2.953
				c1.867-0.95,3.801-1.44,5.805-1.476c2-0.034,3.918,0.611,5.752,1.934c1.832,1.324,3.291,3.786,4.377,7.382v0.305
				c0.949-1.492,2.002-2.934,3.156-4.326C316.819,27.078,318.075,25.805,319.435,24.65z M292.353,64.561
				c0.609,0.067,1.527-0.561,2.748-1.885c1.223-1.322,2.598-3.069,4.125-5.243c1.525-2.169,3.104-4.681,4.732-7.533
				c1.629-2.85,3.189-5.803,4.684-8.857c0.203-0.542,0.408-1.084,0.611-1.63c0.203-0.542,0.441-1.084,0.713-1.629
				c0.34-1.559,0.17-2.781-0.51-3.664c-0.678-0.882-1.527-1.357-2.545-1.426c-1.086,0-2.275,0.763-3.562,2.291
				c-1.291,1.527-2.545,3.479-3.768,5.854s-2.377,4.937-3.461,7.686c-1.086,2.749-1.986,5.311-2.699,7.688
				c-0.711,2.377-1.188,4.361-1.426,5.956C291.757,63.763,291.876,64.561,292.353,64.561z"/>
		</g>
		<g>
			<path fill="#FFFFFF" d="M367.183,24.041c0.408-0.206,1.121-0.119,2.139,0.253c1.018,0.374,2.037,1.019,3.055,1.936
				c1.018,0.915,1.85,2.087,2.494,3.511c0.645,1.426,0.764,3.089,0.357,4.988c-0.408,1.902-1.07,3.887-1.986,5.956
				c-0.916,2.072-1.646,3.854-2.189,5.346c-0.611,1.629-1.627,2.749-3.055,3.359c-1.426,0.612-2.9,0.866-4.428,0.765
				c-1.527-0.103-2.885-0.51-4.072-1.222c-1.189-0.712-1.816-1.543-1.883-2.494c0.406-1.968,0.846-3.92,1.322-5.854
				c0.475-1.934,1.02-3.817,1.629-5.649c-1.562,1.29-2.951,3.02-4.174,5.19c-1.223,2.175-2.326,4.583-3.309,7.229
				c-0.984,2.648-1.883,5.433-2.697,8.349c-0.816,2.919-1.615,5.735-2.395,8.449c-0.781,2.718-1.562,5.229-2.342,7.536
				c-0.781,2.307-1.645,4.173-2.596,5.598c-0.883,1.7-1.984,2.649-3.309,2.852c-1.322,0.202-2.58-0.085-3.768-0.864
				c-1.186-0.78-2.137-1.917-2.85-3.412c-0.713-1.491-0.932-3.054-0.662-4.684c1.359-9.704,2.801-18.156,4.326-25.351
				c1.527-7.194,3.07-13.745,4.633-19.65c0.611-1.628,1.646-2.714,3.105-3.256c1.459-0.544,2.902-0.613,4.328-0.206
				c1.426,0.408,2.611,1.257,3.562,2.546c0.951,1.291,1.289,2.919,1.018,4.887c-0.475,1.766-0.9,3.071-1.271,3.92
				c-0.373,0.849-0.715,1.613-1.02,2.291c-0.305,0.68-0.609,1.477-0.916,2.392c-0.305,0.917-0.627,2.327-0.967,4.226
				c1.221-2.917,2.443-5.601,3.666-8.042c1.223-2.444,2.527-4.531,3.92-6.264c1.389-1.729,2.9-3.019,4.529-3.869
				c1.629-0.847,3.461-1.169,5.498-0.967L367.183,24.041z"/>
		</g>
	</g>
	<g>
		<path fill="#FFFFFF" d="M36.746,85.548"/>
	</g>
	<path fill="#FFFFFF" d="M253.083,100.783c-0.719-1.114-1.619-2.154-2.672-3.093c-1.066-0.949-2.273-1.734-3.596-2.338
		c-2.25-1.026-4.488-1.199-6.41-0.678c-0.885,0.237-1.725,0.701-2.496,1.372l-0.824,0.826v0.015c-0.135,0.117-0.27,0.223-0.404,0.34
		c-0.084,0.067-0.166,0.12-0.252,0.19c-15.828,13.506-49.959,15.007-97.443,6.504c-35.264-6.313-77.865-18.966-97.47-25.062
		c-1.81-0.581-3.482-1.103-5.021-1.577c-0.39-0.123-0.779-0.246-1.133-0.357c-0.003,0.003-0.008,0.006-0.011,0.009
		c-0.89-0.27-1.717-0.516-2.513-0.752l5.756-5.447c2.688-2.671,5.516-5.43,8.482-8.264c5.358-5.117,10.729-10.179,15.961-15.048
		c5.329-4.958,10.565-9.783,15.562-14.34c5.017-4.576,9.458-8.592,13.331-12.059c3.6-3.26,6.521-5.908,8.76-7.945
		c3.063-2.785,3.783-3.527,4.048-3.846c0.831-0.949,1.27-2.096,1.27-3.316c0-1.364-0.566-2.548-1.651-3.433
		c-0.746-0.602-1.691-1.104-2.816-1.496c-1.027-0.354-2.193-0.612-3.467-0.768c-3.159-0.383-6.555-0.253-9.392,0.276
		c-1.766,0.332-2.907,0.676-3.69,1.12C79.742,3.293,74.925,4.488,70.667,5.17c-8.616,1.382-16.276,1.265-22.262,0.354
		c-3.097-0.471-5.951-0.946-8.51-1.419c-1.96-0.336-3.767-0.657-5.421-0.962c-1.777-0.327-3.6-0.494-5.508-0.494
		c-0.01,0-0.021,0-0.031,0c-3.696,0.149-7.342,1.101-10.833,2.828c-3.437,1.7-6.537,3.957-9.218,6.708
		c-2.687,2.763-4.856,5.961-6.447,9.507C0.819,25.296,0,29.101,0,33c0,2.103,0.437,4.062,1.298,5.823
		c0.839,1.719,1.992,3.237,3.428,4.51c1.438,1.281,3.149,2.271,5.085,2.941c1.893,0.657,3.974,0.991,6.185,0.991
		c2.504,0,4.958-0.572,7.292-1.701c2.203-1.064,4.168-2.338,5.841-3.789c1.667-1.445,3.026-2.923,4.041-4.39
		c1.228-1.773,1.774-3.063,1.774-4.183c0-0.982-0.433-1.906-1.214-2.598c-0.719-0.638-1.569-0.976-2.463-0.976
		c-0.349,0-0.721,0.021-1.121,0.066c-0.204,0.023-0.371,0.035-0.507,0.035l-0.447,0.045c-0.189,0.038-0.415,0.058-0.673,0.058
		c-2.149,0-3.832-0.587-5.145-1.796c-1.259-1.16-1.87-2.667-1.87-4.608c0-1.332,0.279-2.498,0.854-3.567
		c0.605-1.13,1.416-2.121,2.41-2.949c1.001-0.836,2.182-1.488,3.511-1.94c2.478-0.845,5.229-0.803,8.388-0.454
		c1.521,0.171,3.127,0.354,4.808,0.558c2.192,0.274,4.521,0.53,6.984,0.769c2.5,0.245,5.279,0.369,8.262,0.369
		c1.646,0,3.242-0.018,4.785-0.052c1.575-0.034,3.229-0.141,4.913-0.317c1.015-0.104,2.075-0.244,3.17-0.415
		c-0.684,0.632-1.394,1.291-2.13,1.974c-3.291,3.052-6.905,6.395-10.839,10.022c-3.943,3.638-8.114,7.552-12.396,11.631
		c-4.313,4.111-8.626,8.236-12.938,12.379c-4.36,4.189-8.617,8.341-12.65,12.343c-4.126,4.093-7.929,7.981-11.392,11.659
		c-1.022,1.226-1.541,2.465-1.541,3.685c0,1.438,0.528,2.693,1.523,3.624c1.537,1.444,3.804,1.752,5.803,0.84l-0.006,0.029
		c0,0,0.075-0.044,0.192-0.111c0.041-0.021,0.084-0.033,0.125-0.055c0.108-0.059,0.206-0.125,0.312-0.187
		c1.114-0.596,3.492-1.746,5.231-1.711c1.668,0.033,6.734,0.881,12.545,2.454c5.564,1.703,10.5,3.501,10.5,3.501l-0.002-0.009
		c20.987,7.752,50.916,21.018,91.123,29.43c33.836,9.388,60.215,9.599,80.391,6.981c11.41-1.624,26.912-4.957,35.418-11.58
		c1.102-0.985,2.205-2.02,3.303-3.113c0.311-0.334,0.623-0.653,0.936-0.938l0.035-0.041c0.83-1.079,1.252-2.269,1.252-3.538
		C254.384,103.43,253.946,102.113,253.083,100.783z"/>
	<g>
		<path fill="#FFFFFF" d="M262.265,109.124c-0.59-0.404-1.191-0.697-1.805-0.879c-0.611-0.179-1.145-0.27-1.6-0.27
			c-0.998,0-1.498,0.337-1.498,1.014c0,0.091-0.113,0.337-0.342,0.745c-0.225,0.404-0.451,0.788-0.68,1.148
			c-0.318,0.495-0.602,1.002-0.852,1.521c-0.248,0.519-0.375,0.958-0.375,1.315c0,0.812,0.205,1.521,0.613,2.131
			s0.896,1.117,1.463,1.521c0.57,0.404,1.17,0.7,1.807,0.879c0.635,0.179,1.201,0.27,1.703,0.27c0.498,0,0.895-0.091,1.191-0.27
			c0.293-0.179,0.441-0.451,0.441-0.812c0-0.179,0.113-0.495,0.34-0.947c0.229-0.448,0.455-0.879,0.682-1.283
			c0.227-0.451,0.453-0.899,0.68-1.352c0.229-0.451,0.342-0.812,0.342-1.081c0-0.812-0.205-1.521-0.611-2.131
			C263.354,110.036,262.854,109.531,262.265,109.124z"/>
		<path fill="#FFFFFF" d="M377.095,96.586c-0.381-0.293-0.822-0.439-1.316-0.439c-0.812,0-1.377,0.404-1.689,1.216
			c-0.271,0.722-0.711,1.633-1.32,2.738c-0.607,1.104-1.295,2.276-2.061,3.514c-0.768,1.24-1.59,2.468-2.467,3.685
			c-0.879,1.219-1.725,2.321-2.535,3.314c-0.812,0.99-1.555,1.803-2.232,2.433c-0.676,0.63-1.215,0.946-1.621,0.946
			c-0.541,0-0.811-0.226-0.811-0.677c0-0.63,0.258-1.51,0.775-2.635c0.52-1.129,1.139-2.389,1.861-3.787
			c0.494-0.99,1.014-2.051,1.555-3.177c0.541-1.125,1.047-2.254,1.52-3.379c0.475-1.126,0.867-2.254,1.184-3.38
			c0.314-1.128,0.518-2.21,0.607-3.247c0.045-0.313,0.078-0.606,0.102-0.877c0.021-0.272,0.033-0.586,0.033-0.946
			c0-2.119-0.494-3.808-1.484-5.07c-0.992-1.261-2.346-1.894-4.057-1.894c-0.902,0-1.814,0.226-2.738,0.677
			c-0.924,0.452-1.85,1.07-2.771,1.858c-0.924,0.789-1.859,1.715-2.807,2.772c-0.945,1.059-1.848,2.195-2.703,3.412
			c0.045-0.36,0.068-0.662,0.068-0.912c0-0.246,0-0.551,0-0.911c0-2.163-0.498-3.866-1.488-5.105
			c-0.992-1.237-2.344-1.858-4.057-1.858c-1.352,0-2.736,0.483-4.156,1.454c-1.42,0.97-2.783,2.151-4.09,3.549
			c-0.045-0.946-0.26-1.747-0.641-2.4c-0.385-0.653-0.836-1.16-1.354-1.521c-0.52-0.361-1.082-0.619-1.689-0.777
			s-1.184-0.237-1.725-0.237c-1.037,0-1.938,0.193-2.703,0.574c-0.768,0.385-1.15,0.824-1.15,1.319c0,0.226,0.023,0.372,0.068,0.439
			s0.113,0.146,0.203,0.237c0.09,0.179,0.135,0.313,0.135,0.404c0,0.769-0.361,1.993-1.082,3.685s-1.555,3.572-2.5,5.645
			c-0.041,0.082-0.082,0.169-0.123,0.252c-0.004,0.006-0.008,0.011-0.012,0.018c-0.09,0.227-0.26,0.543-0.506,0.947
			c-0.25,0.404-0.633,0.823-1.15,1.251c-0.52,0.429-1.207,0.821-2.062,1.182c-0.855,0.363-1.938,0.609-3.244,0.744
			c0,0,2.846-9.479,0.211-14.146c-0.086-0.158-0.186-0.31-0.289-0.456c-0.051-0.073-0.09-0.158-0.145-0.229
			c-0.057-0.073-0.121-0.122-0.18-0.189c-0.039-0.044-0.064-0.094-0.105-0.136c-0.031-0.034-0.076-0.061-0.111-0.093
			c-0.213-0.218-0.436-0.404-0.662-0.557c-0.025-0.018-0.053-0.035-0.078-0.055c-0.146-0.091-0.289-0.174-0.439-0.243
			c-0.176-0.098-0.336-0.206-0.533-0.296c-0.744-0.334-1.68-0.501-2.807-0.501c-2.795,0-5.385,0.768-7.771,2.298
			c-2.391,1.533-4.453,3.481-6.186,5.847c-0.885,1.205-1.666,2.471-2.35,3.799c-0.158,0.172-0.297,0.371-0.389,0.63
			c-0.631,1.533-1.578,3.269-2.84,5.206c-1.262,1.937-2.67,3.774-4.225,5.51s-3.178,3.188-4.867,4.358
			c-1.689,1.172-3.234,1.758-4.631,1.758c-0.9,0-1.521-0.325-1.857-0.981c-0.34-0.65-0.508-1.633-0.508-2.939
			c0-1.396,0.191-2.896,0.574-4.496c0.383-1.598,0.891-3.074,1.521-4.426c1.846-3.966,3.617-7.031,5.307-9.194
			s3.098-3.244,4.225-3.244h0.135c-0.541,0.451-0.811,1.081-0.811,1.894c0,0.765,0.279,1.374,0.844,1.822
			c0.562,0.452,1.207,0.678,1.928,0.678c0.719,0,1.363-0.237,1.926-0.71c0.564-0.475,0.846-1.295,0.846-2.468
			c0-1.081-0.236-1.961-0.709-2.638c-0.475-0.674-1.049-1.216-1.725-1.62c-0.676-0.405-1.387-0.678-2.131-0.812
			c-0.742-0.135-1.385-0.202-1.926-0.202c-3.244,0-6.385,1.196-9.416,3.582c-3.031,2.392-5.645,6.219-7.836,11.491
			c-0.537,1.354-1.006,2.806-1.41,4.361c-0.4,1.554-0.604,3.055-0.604,4.496c0,1.126,0.168,2.274,0.502,3.447
			c0.338,1.172,0.875,2.23,1.611,3.177c0.74,0.946,1.711,1.724,2.92,2.333c1.209,0.606,2.686,0.911,4.432,0.911
			c2.207,0,4.426-0.653,6.658-1.961c2.23-1.307,4.326-2.963,6.287-4.968c1.074-1.099,2.078-2.26,3.037-3.46
			c-0.008,0.218-0.031,0.438-0.031,0.655c0,1.308,0.193,2.559,0.576,3.752c0.383,1.195,0.936,2.242,1.656,3.142
			c0.721,0.902,1.623,1.612,2.703,2.131c1.082,0.519,2.299,0.776,3.652,0.776c1.756,0,3.379-0.46,4.865-1.386
			c1.488-0.924,2.852-2.084,4.09-3.479c1.238-1.397,2.332-2.884,3.279-4.464c0.947-1.576,1.734-3.042,2.367-4.393
			c1.305-0.044,2.566-0.203,3.785-0.473c0.568-0.127,1.113-0.281,1.643-0.451c-0.24,0.583-0.477,1.164-0.697,1.735
			c-0.541,1.397-0.98,2.726-1.32,3.989c-0.336,1.26-0.506,2.389-0.506,3.379c0,1.081,0.182,1.984,0.541,2.702
			c0.361,0.724,0.789,1.299,1.285,1.727s1.025,0.732,1.588,0.911c0.564,0.182,1.047,0.27,1.453,0.27c0.855,0,1.6-0.202,2.23-0.606
			c0.631-0.407,0.947-0.879,0.947-1.422c0-0.088-0.023-0.179-0.068-0.27s-0.09-0.202-0.135-0.337
			c-0.047-0.044-0.068-0.249-0.068-0.609c0-1.034,0.473-2.512,1.414-4.429c0.943-1.914,1.998-3.954,3.166-6.116
			c1.076-1.938,2.086-3.898,3.029-5.88l-0.068,0.067c0.809-1.219,1.65-2.4,2.525-3.549c0.875-1.149,1.717-2.187,2.525-3.11
			c0.807-0.923,1.547-1.655,2.221-2.198c0.674-0.539,1.213-0.812,1.617-0.812c0.359,0,0.539,0.182,0.539,0.542
			c0,0.678-0.383,1.771-1.143,3.28c-0.762,1.509-1.59,3.098-2.482,4.766c-0.674,1.216-1.355,2.5-2.049,3.851
			c-0.693,1.354-1.32,2.693-1.879,4.024c-0.561,1.328-1.029,2.614-1.408,3.852c-0.381,1.239-0.572,2.356-0.572,3.347
			c0,1.081,0.18,1.984,0.539,2.702c0.357,0.724,0.803,1.299,1.342,1.727c0.535,0.428,1.129,0.732,1.777,0.911
			c0.648,0.182,1.264,0.27,1.846,0.27c0.984,0,1.857-0.202,2.617-0.606c0.762-0.407,1.141-0.855,1.141-1.354
			c0-0.224-0.023-0.37-0.066-0.44c-0.047-0.067-0.113-0.144-0.205-0.234c-0.045-0.091-0.09-0.158-0.135-0.202
			c-0.045-0.047-0.066-0.114-0.066-0.205c0-0.63,0.215-1.51,0.646-2.635c0.43-1.126,0.939-2.342,1.531-3.652
			c0.998-1.937,2.201-4.053,3.607-6.354c1.406-2.298,2.811-4.449,4.211-6.454c1.402-2.005,2.699-3.685,3.896-5.038
			c1.191-1.352,2.105-2.028,2.736-2.028c0.586,0,0.879,0.205,0.879,0.609c0,0.543-0.236,1.284-0.709,2.23
			c-0.475,0.947-1.027,2.075-1.656,3.38v-0.067c-0.541,1.081-1.127,2.23-1.758,3.449c-0.631,1.217-1.207,2.488-1.725,3.819
			c-0.52,1.327-0.947,2.693-1.283,4.088c-0.34,1.398-0.508,2.797-0.508,4.191c0,0.994,0.123,1.938,0.373,2.84
			c0.246,0.903,0.596,1.688,1.047,2.365c0.449,0.678,1.014,1.208,1.689,1.589c0.676,0.384,1.465,0.574,2.365,0.574
			c1.082,0,2.209-0.372,3.381-1.113c1.172-0.745,2.342-1.715,3.514-2.907c1.174-1.193,2.311-2.535,3.416-4.024
			c1.104-1.486,2.139-2.972,3.109-4.461c0.969-1.486,1.824-2.896,2.568-4.224c0.744-1.33,1.34-2.444,1.791-3.347
			c0.043-0.091,0.09-0.214,0.135-0.372s0.068-0.281,0.068-0.372C377.671,97.271,377.478,96.879,377.095,96.586z M313.858,95.438
			c-0.496,0.293-0.924,0.674-1.285,1.148c-0.361,0.472-0.631,1.002-0.811,1.589c-0.18,0.586-0.271,1.172-0.271,1.755
			c0,0.903,0.158,1.703,0.475,2.4c0.314,0.701,0.879,1.275,1.689,1.724c-0.541,1.038-1.172,2.143-1.893,3.312
			c-0.723,1.172-1.453,2.254-2.197,3.247c-0.744,0.99-1.465,1.814-2.164,2.465c-0.699,0.653-1.316,0.981-1.857,0.981
			c-0.768,0-1.33-0.384-1.689-1.148c-0.363-0.768-0.541-1.668-0.541-2.705c0-1.217,0.189-2.591,0.574-4.124
			c0.383-1.53,0.889-3.098,1.521-4.698c0.629-1.598,1.352-3.153,2.162-4.663s1.645-2.86,2.502-4.057
			c0.699-0.976,1.385-1.787,2.057-2.448c0.207-0.176,2.447-2.033,3.988-0.86c0.004,0.005,0.01,0.009,0.014,0.013
			c0.582,0.456,0.787,1.357,0.801,2.399c-0.008,0.334-0.031,0.639-0.035,0.878c-0.061,0.806-0.189,1.631-0.342,2.383
			c-0.41-0.02-0.746-0.031-1.008-0.031C314.917,94.997,314.354,95.144,313.858,95.438z"/>
	</g>
</g>
</svg>
